# xmcd
#
# Track frame offsets: 
#        150
#        16676
#        33712
#        48507
#        64053
#        83367
#        101222
#        114382
#        128980
#        145946
#        160340
#        176724
#        193008
#
# Disc length: 2772 seconds
#
# Revision: 5
# Processed by: cddbd v1.5.2PL0 Copyright (c) Steve Scherf et al.
# Submitted via: ExactAudioCopy v0.99pb5
#
DISCID=af0ad20d
DTITLE=Paul Overstreet - Living By The Book
DYEAR=1900
DGENRE=Country
TTITLE0=Lost And Found
TTITLE1=He Is Risen
TTITLE2=Dig Another Well
TTITLE3=Everybody Needs Your Touch
TTITLE4=Living By The Book
TTITLE5=Steady Working
TTITLE6=Oh Why
TTITLE7=I Will Carry My Cross For You
TTITLE8=God Is Good
TTITLE9=Until We Know
TTITLE10=Heart Of My Heart
TTITLE11=Wise Men Still Seek Him
TTITLE12=I Won't Take Less Than Your Love
EXTD=
EXTT0=
EXTT1=
EXTT2=
EXTT3=
EXTT4=
EXTT5=
EXTT6=
EXTT7=
EXTT8=
EXTT9=
EXTT10=
EXTT11=
EXTT12=
PLAYORDER=
